<?xml version="1.0" encoding="iso-8859-1"?>
<!-- Generator: Adobe Illustrator 19.0.0, SVG Export Plug-In . SVG Version: 6.00 Build 0)  -->
<svg version="1.1" id="Layer_1" xmlns="http://www.w3.org/2000/svg" xmlns:xlink="http://www.w3.org/1999/xlink" x="0px" y="0px"
	 viewBox="0 0 512 512" style="enable-background:new 0 0 512 512;" xml:space="preserve">
<polygon style="fill:#FFB14E;" points="465.769,133.793 465.769,378.209 256,500.417 221.249,221.25 "/>
<polygon style="fill:#FF9356;" points="256,221.25 256,500.417 46.23,378.209 46.23,133.793 "/>
<polygon style="fill:#FFB14E;" points="360.89,72.689 300.932,169.361 151.109,194.897 46.23,133.793 256,11.585 "/>
<polygon style="fill:#FFD86C;" points="465.769,133.793 256,256.001 151.109,194.897 360.89,72.689 "/>
<g>
	<path style="fill:#01121C;" d="M477.341,133.591c-0.007-0.373-0.031-0.745-0.074-1.113c-0.013-0.116-0.023-0.233-0.041-0.348
		c-0.066-0.449-0.152-0.895-0.269-1.333c-0.015-0.058-0.037-0.112-0.053-0.169c-0.109-0.382-0.239-0.758-0.386-1.127
		c-0.047-0.118-0.098-0.235-0.149-0.352c-0.146-0.335-0.308-0.661-0.487-0.982c-0.045-0.08-0.085-0.163-0.131-0.242
		c-0.235-0.401-0.493-0.79-0.778-1.163c-0.022-0.029-0.049-0.057-0.071-0.086c-0.257-0.33-0.536-0.646-0.832-0.95
		c-0.081-0.083-0.166-0.164-0.249-0.246c-0.261-0.251-0.534-0.491-0.821-0.721c-0.089-0.072-0.174-0.146-0.265-0.214
		c-0.36-0.271-0.734-0.529-1.134-0.761L261.831,1.575c-3.604-2.1-8.058-2.1-11.661,0L40.398,123.783
		c-0.4,0.233-0.774,0.49-1.134,0.761c-0.092,0.068-0.176,0.144-0.265,0.214c-0.287,0.229-0.561,0.469-0.821,0.721
		c-0.085,0.081-0.168,0.162-0.249,0.246c-0.295,0.303-0.575,0.62-0.832,0.95c-0.023,0.029-0.049,0.057-0.071,0.086
		c-0.285,0.373-0.542,0.762-0.778,1.163c-0.046,0.079-0.087,0.162-0.131,0.242c-0.178,0.321-0.341,0.648-0.487,0.982
		c-0.051,0.117-0.102,0.234-0.149,0.352c-0.147,0.37-0.277,0.745-0.386,1.127c-0.016,0.057-0.038,0.112-0.053,0.169
		c-0.117,0.438-0.203,0.884-0.269,1.333c-0.016,0.115-0.027,0.232-0.041,0.348c-0.043,0.37-0.067,0.74-0.074,1.113
		c-0.001,0.067-0.014,0.133-0.014,0.202v244.416c0,4.123,2.19,7.934,5.752,10.009l209.772,122.208
		c0.034,0.02,0.068,0.031,0.102,0.05c0.414,0.236,0.84,0.453,1.283,0.637c0.005,0.002,0.01,0.003,0.016,0.006
		c0.419,0.174,0.853,0.316,1.295,0.44c0.112,0.031,0.224,0.059,0.337,0.087c0.346,0.086,0.699,0.155,1.056,0.21
		c0.119,0.019,0.237,0.041,0.357,0.054c0.455,0.054,0.915,0.09,1.384,0.09s0.93-0.036,1.384-0.09
		c0.119-0.014,0.237-0.036,0.357-0.054c0.358-0.054,0.71-0.124,1.056-0.21c0.112-0.028,0.225-0.054,0.337-0.087
		c0.443-0.124,0.876-0.266,1.295-0.44c0.005-0.002,0.01-0.003,0.016-0.006c0.444-0.184,0.87-0.401,1.283-0.637
		c0.034-0.019,0.068-0.031,0.102-0.05l209.772-122.208c3.562-2.076,5.753-5.887,5.753-10.009V133.792
		C477.355,133.724,477.343,133.66,477.341,133.591z M256,242.595l-81.874-47.698l186.76-108.802l81.875,47.698L256,242.595z
		 M256,24.99l81.874,47.698l-186.76,108.802L69.24,133.793L256,24.99z M454.188,371.551L267.584,480.263v-47.031
		c0-6.398-5.186-11.584-11.584-11.584c-6.398,0-11.584,5.186-11.584,11.584v47.031L57.812,371.551V153.947l87.603,51.036
		c0.006,0.003,0.013,0.007,0.019,0.012l98.983,57.664v124.239c0,6.398,5.186,11.584,11.584,11.584
		c6.398,0,11.584-5.186,11.584-11.584V262.658l186.604-108.711L454.188,371.551L454.188,371.551z"/>
	<path style="fill:#01121C;" d="M329.687,287.138c2.152,3.694,6.033,5.755,10.02,5.755c1.98,0,3.986-0.507,5.82-1.577l42.378-24.688
		c5.528-3.22,7.398-10.312,4.178-15.84c-3.22-5.528-10.313-7.397-15.84-4.178l-42.378,24.688
		C328.338,274.519,326.467,281.61,329.687,287.138z"/>
</g>
<g>
</g>
<g>
</g>
<g>
</g>
<g>
</g>
<g>
</g>
<g>
</g>
<g>
</g>
<g>
</g>
<g>
</g>
<g>
</g>
<g>
</g>
<g>
</g>
<g>
</g>
<g>
</g>
<g>
</g>
</svg>
